# xmcd
#
# Track frame offsets:
#	150
#	15953
#	33825
#	64304
#	77978
#	107593
#	128948
#	145331
#	169151
#	181749
#	206876
#	224215
#
# Disc length: 3200 seconds
#
# Revision: 1
# Processed by: cddbd v1.5.2PL0 Copyright (c) Steve Scherf et al.
# Submitted via: audiograbber 1.83.01
#
DISCID=af0c7e0c
DTITLE=Free Fall - Power and Volume
DYEAR=2013
DGENRE=Rock
TTITLE0=Power and Volume
TTITLE1=Free Fall
TTITLE2=Midnight Vulture
TTITLE3=Top of the World
TTITLE4=Attila
TTITLE5=World Domination
TTITLE6=Love Bombing
TTITLE7=Damnation
TTITLE8=Meriola Blues
TTITLE9=Meat
TTITLE10=Change Coming
TTITLE11=Yeah!!!
EXTD=
EXTT0=
EXTT1=
EXTT2=
EXTT3=
EXTT4=
EXTT5=
EXTT6=
EXTT7=
EXTT8=
EXTT9=
EXTT10=
EXTT11=
PLAYORDER=
